<mxfile host="app.diagrams.net" modified="2023-04-15T12:26:13.551Z" agent="Mozilla/5.0 (Macintosh; Intel Mac OS X 10_15_7) AppleWebKit/537.36 (KHTML, like Gecko) Chrome/112.0.0.0 Safari/537.36" etag="WQ7l26H9SgRDV0hV2DGA" version="21.1.1" type="device">
  <diagram id="C5RBs43oDa-KdzZeNtuy" name="Page-1">
    <mxGraphModel dx="1194" dy="741" grid="1" gridSize="10" guides="1" tooltips="1" connect="1" arrows="1" fold="1" page="1" pageScale="1" pageWidth="827" pageHeight="1169" math="0" shadow="0">
      <root>
        <mxCell id="WIyWlLk6GJQsqaUBKTNV-0" />
        <mxCell id="WIyWlLk6GJQsqaUBKTNV-1" parent="WIyWlLk6GJQsqaUBKTNV-0" />
        <mxCell id="lF4Y2PLeJeTcyX0tc8FO-0" value="" style="rounded=0;html=1;jettySize=auto;orthogonalLoop=1;fontSize=11;endArrow=classic;endFill=1;endSize=6;strokeWidth=1;shadow=0;labelBackgroundColor=none;edgeStyle=orthogonalEdgeStyle;entryX=0.5;entryY=0;entryDx=0;entryDy=0;" edge="1" parent="WIyWlLk6GJQsqaUBKTNV-1" source="lF4Y2PLeJeTcyX0tc8FO-2" target="lF4Y2PLeJeTcyX0tc8FO-8">
          <mxGeometry relative="1" as="geometry">
            <mxPoint x="182" y="130" as="targetPoint" />
          </mxGeometry>
        </mxCell>
        <mxCell id="lF4Y2PLeJeTcyX0tc8FO-47" style="edgeStyle=orthogonalEdgeStyle;rounded=0;orthogonalLoop=1;jettySize=auto;html=1;" edge="1" parent="WIyWlLk6GJQsqaUBKTNV-1" source="lF4Y2PLeJeTcyX0tc8FO-2" target="lF4Y2PLeJeTcyX0tc8FO-45">
          <mxGeometry relative="1" as="geometry">
            <Array as="points">
              <mxPoint x="182" y="130" />
              <mxPoint x="360" y="130" />
            </Array>
          </mxGeometry>
        </mxCell>
        <mxCell id="lF4Y2PLeJeTcyX0tc8FO-48" style="edgeStyle=orthogonalEdgeStyle;rounded=0;orthogonalLoop=1;jettySize=auto;html=1;entryX=0.5;entryY=0;entryDx=0;entryDy=0;" edge="1" parent="WIyWlLk6GJQsqaUBKTNV-1" source="lF4Y2PLeJeTcyX0tc8FO-2" target="lF4Y2PLeJeTcyX0tc8FO-46">
          <mxGeometry relative="1" as="geometry">
            <Array as="points">
              <mxPoint x="182" y="130" />
              <mxPoint x="620" y="130" />
            </Array>
          </mxGeometry>
        </mxCell>
        <mxCell id="lF4Y2PLeJeTcyX0tc8FO-2" value="화면 진입" style="rounded=1;whiteSpace=wrap;html=1;fontSize=12;glass=0;strokeWidth=1;shadow=0;" vertex="1" parent="WIyWlLk6GJQsqaUBKTNV-1">
          <mxGeometry x="122" y="70" width="120" height="40" as="geometry" />
        </mxCell>
        <mxCell id="lF4Y2PLeJeTcyX0tc8FO-3" value="&lt;h1&gt;고객센터 화면&lt;/h1&gt;" style="text;html=1;strokeColor=none;fillColor=none;spacing=5;spacingTop=-20;whiteSpace=wrap;overflow=hidden;rounded=0;" vertex="1" parent="WIyWlLk6GJQsqaUBKTNV-1">
          <mxGeometry x="20" y="20" width="273" height="40" as="geometry" />
        </mxCell>
        <mxCell id="lF4Y2PLeJeTcyX0tc8FO-7" style="edgeStyle=orthogonalEdgeStyle;rounded=0;orthogonalLoop=1;jettySize=auto;html=1;entryX=0.5;entryY=0;entryDx=0;entryDy=0;" edge="1" parent="WIyWlLk6GJQsqaUBKTNV-1" source="lF4Y2PLeJeTcyX0tc8FO-8" target="lF4Y2PLeJeTcyX0tc8FO-50">
          <mxGeometry relative="1" as="geometry">
            <mxPoint x="182" y="230" as="targetPoint" />
          </mxGeometry>
        </mxCell>
        <mxCell id="lF4Y2PLeJeTcyX0tc8FO-8" value="공지사항 확인" style="rounded=1;whiteSpace=wrap;html=1;fontSize=12;glass=0;strokeWidth=1;shadow=0;" vertex="1" parent="WIyWlLk6GJQsqaUBKTNV-1">
          <mxGeometry x="122" y="160" width="120" height="40" as="geometry" />
        </mxCell>
        <mxCell id="lF4Y2PLeJeTcyX0tc8FO-88" style="edgeStyle=orthogonalEdgeStyle;rounded=0;orthogonalLoop=1;jettySize=auto;html=1;entryX=0;entryY=0.5;entryDx=0;entryDy=0;" edge="1" parent="WIyWlLk6GJQsqaUBKTNV-1" source="lF4Y2PLeJeTcyX0tc8FO-43" target="lF4Y2PLeJeTcyX0tc8FO-87">
          <mxGeometry relative="1" as="geometry" />
        </mxCell>
        <mxCell id="lF4Y2PLeJeTcyX0tc8FO-89" value="No" style="edgeLabel;html=1;align=center;verticalAlign=middle;resizable=0;points=[];" vertex="1" connectable="0" parent="lF4Y2PLeJeTcyX0tc8FO-88">
          <mxGeometry x="0.6" y="-2" relative="1" as="geometry">
            <mxPoint y="-12" as="offset" />
          </mxGeometry>
        </mxCell>
        <mxCell id="lF4Y2PLeJeTcyX0tc8FO-96" style="edgeStyle=orthogonalEdgeStyle;rounded=0;orthogonalLoop=1;jettySize=auto;html=1;entryX=0.5;entryY=0;entryDx=0;entryDy=0;" edge="1" parent="WIyWlLk6GJQsqaUBKTNV-1" source="lF4Y2PLeJeTcyX0tc8FO-43" target="lF4Y2PLeJeTcyX0tc8FO-90">
          <mxGeometry relative="1" as="geometry" />
        </mxCell>
        <mxCell id="lF4Y2PLeJeTcyX0tc8FO-97" value="Yes" style="edgeLabel;html=1;align=center;verticalAlign=middle;resizable=0;points=[];" vertex="1" connectable="0" parent="lF4Y2PLeJeTcyX0tc8FO-96">
          <mxGeometry x="-0.325" y="1" relative="1" as="geometry">
            <mxPoint x="9" y="6" as="offset" />
          </mxGeometry>
        </mxCell>
        <mxCell id="lF4Y2PLeJeTcyX0tc8FO-43" value="로그인이 되어있는가?" style="rhombus;whiteSpace=wrap;html=1;shadow=0;fontFamily=Helvetica;fontSize=12;align=center;strokeWidth=1;spacing=6;spacingTop=-4;" vertex="1" parent="WIyWlLk6GJQsqaUBKTNV-1">
          <mxGeometry x="550" y="240" width="140" height="80" as="geometry" />
        </mxCell>
        <mxCell id="lF4Y2PLeJeTcyX0tc8FO-65" style="edgeStyle=orthogonalEdgeStyle;rounded=0;orthogonalLoop=1;jettySize=auto;html=1;entryX=0.5;entryY=0;entryDx=0;entryDy=0;" edge="1" parent="WIyWlLk6GJQsqaUBKTNV-1" source="lF4Y2PLeJeTcyX0tc8FO-45" target="lF4Y2PLeJeTcyX0tc8FO-62">
          <mxGeometry relative="1" as="geometry" />
        </mxCell>
        <mxCell id="lF4Y2PLeJeTcyX0tc8FO-45" value="FAQ 확인" style="rounded=1;whiteSpace=wrap;html=1;fontSize=12;glass=0;strokeWidth=1;shadow=0;" vertex="1" parent="WIyWlLk6GJQsqaUBKTNV-1">
          <mxGeometry x="300" y="160" width="120" height="40" as="geometry" />
        </mxCell>
        <mxCell id="lF4Y2PLeJeTcyX0tc8FO-49" style="edgeStyle=orthogonalEdgeStyle;rounded=0;orthogonalLoop=1;jettySize=auto;html=1;entryX=0.5;entryY=0;entryDx=0;entryDy=0;" edge="1" parent="WIyWlLk6GJQsqaUBKTNV-1" source="lF4Y2PLeJeTcyX0tc8FO-46" target="lF4Y2PLeJeTcyX0tc8FO-43">
          <mxGeometry relative="1" as="geometry" />
        </mxCell>
        <mxCell id="lF4Y2PLeJeTcyX0tc8FO-46" value="Q&amp;amp;A 확인" style="rounded=1;whiteSpace=wrap;html=1;fontSize=12;glass=0;strokeWidth=1;shadow=0;" vertex="1" parent="WIyWlLk6GJQsqaUBKTNV-1">
          <mxGeometry x="560" y="160" width="120" height="40" as="geometry" />
        </mxCell>
        <mxCell id="lF4Y2PLeJeTcyX0tc8FO-56" style="edgeStyle=orthogonalEdgeStyle;rounded=0;orthogonalLoop=1;jettySize=auto;html=1;" edge="1" parent="WIyWlLk6GJQsqaUBKTNV-1" source="lF4Y2PLeJeTcyX0tc8FO-50" target="lF4Y2PLeJeTcyX0tc8FO-52">
          <mxGeometry relative="1" as="geometry" />
        </mxCell>
        <mxCell id="lF4Y2PLeJeTcyX0tc8FO-50" value="공지사항 리스트 표시" style="rounded=1;whiteSpace=wrap;html=1;fontSize=12;glass=0;strokeWidth=1;shadow=0;" vertex="1" parent="WIyWlLk6GJQsqaUBKTNV-1">
          <mxGeometry x="122" y="240" width="120" height="40" as="geometry" />
        </mxCell>
        <mxCell id="lF4Y2PLeJeTcyX0tc8FO-57" style="edgeStyle=orthogonalEdgeStyle;rounded=0;orthogonalLoop=1;jettySize=auto;html=1;entryX=0.5;entryY=0;entryDx=0;entryDy=0;" edge="1" parent="WIyWlLk6GJQsqaUBKTNV-1" source="lF4Y2PLeJeTcyX0tc8FO-52" target="lF4Y2PLeJeTcyX0tc8FO-53">
          <mxGeometry relative="1" as="geometry" />
        </mxCell>
        <mxCell id="lF4Y2PLeJeTcyX0tc8FO-61" style="edgeStyle=orthogonalEdgeStyle;rounded=0;orthogonalLoop=1;jettySize=auto;html=1;entryX=1;entryY=0.5;entryDx=0;entryDy=0;" edge="1" parent="WIyWlLk6GJQsqaUBKTNV-1" source="lF4Y2PLeJeTcyX0tc8FO-52" target="lF4Y2PLeJeTcyX0tc8FO-55">
          <mxGeometry relative="1" as="geometry" />
        </mxCell>
        <mxCell id="lF4Y2PLeJeTcyX0tc8FO-52" value="공지사항 리스트 중&lt;br&gt;공지사항 단건 확인" style="rounded=1;whiteSpace=wrap;html=1;fontSize=12;glass=0;strokeWidth=1;shadow=0;" vertex="1" parent="WIyWlLk6GJQsqaUBKTNV-1">
          <mxGeometry x="122" y="320" width="120" height="40" as="geometry" />
        </mxCell>
        <mxCell id="lF4Y2PLeJeTcyX0tc8FO-58" style="edgeStyle=orthogonalEdgeStyle;rounded=0;orthogonalLoop=1;jettySize=auto;html=1;" edge="1" parent="WIyWlLk6GJQsqaUBKTNV-1" source="lF4Y2PLeJeTcyX0tc8FO-53" target="lF4Y2PLeJeTcyX0tc8FO-54">
          <mxGeometry relative="1" as="geometry" />
        </mxCell>
        <mxCell id="lF4Y2PLeJeTcyX0tc8FO-53" value="공지사항 세부 화면" style="rounded=1;whiteSpace=wrap;html=1;fontSize=12;glass=0;strokeWidth=1;shadow=0;" vertex="1" parent="WIyWlLk6GJQsqaUBKTNV-1">
          <mxGeometry x="122" y="400" width="120" height="40" as="geometry" />
        </mxCell>
        <mxCell id="lF4Y2PLeJeTcyX0tc8FO-86" style="edgeStyle=orthogonalEdgeStyle;rounded=0;orthogonalLoop=1;jettySize=auto;html=1;entryX=1;entryY=0.5;entryDx=0;entryDy=0;" edge="1" parent="WIyWlLk6GJQsqaUBKTNV-1" source="lF4Y2PLeJeTcyX0tc8FO-54" target="lF4Y2PLeJeTcyX0tc8FO-50">
          <mxGeometry relative="1" as="geometry">
            <Array as="points">
              <mxPoint x="262" y="500" />
              <mxPoint x="262" y="260" />
            </Array>
          </mxGeometry>
        </mxCell>
        <mxCell id="lF4Y2PLeJeTcyX0tc8FO-54" value="글 목록 확인 버튼" style="rounded=1;whiteSpace=wrap;html=1;fontSize=12;glass=0;strokeWidth=1;shadow=0;" vertex="1" parent="WIyWlLk6GJQsqaUBKTNV-1">
          <mxGeometry x="122" y="480" width="120" height="40" as="geometry" />
        </mxCell>
        <mxCell id="lF4Y2PLeJeTcyX0tc8FO-55" value="검색 / 정렬" style="rounded=1;whiteSpace=wrap;html=1;fontSize=12;glass=0;strokeWidth=1;shadow=0;" vertex="1" parent="WIyWlLk6GJQsqaUBKTNV-1">
          <mxGeometry x="20" y="320" width="80" height="40" as="geometry" />
        </mxCell>
        <mxCell id="lF4Y2PLeJeTcyX0tc8FO-66" style="edgeStyle=orthogonalEdgeStyle;rounded=0;orthogonalLoop=1;jettySize=auto;html=1;entryX=0.5;entryY=0;entryDx=0;entryDy=0;" edge="1" parent="WIyWlLk6GJQsqaUBKTNV-1" source="lF4Y2PLeJeTcyX0tc8FO-62" target="lF4Y2PLeJeTcyX0tc8FO-63">
          <mxGeometry relative="1" as="geometry" />
        </mxCell>
        <mxCell id="lF4Y2PLeJeTcyX0tc8FO-62" value="자주 묻는 질문 카테고리&lt;br&gt;리스트 표시" style="rounded=1;whiteSpace=wrap;html=1;fontSize=12;glass=0;strokeWidth=1;shadow=0;" vertex="1" parent="WIyWlLk6GJQsqaUBKTNV-1">
          <mxGeometry x="300" y="240" width="120" height="40" as="geometry" />
        </mxCell>
        <mxCell id="lF4Y2PLeJeTcyX0tc8FO-67" style="edgeStyle=orthogonalEdgeStyle;rounded=0;orthogonalLoop=1;jettySize=auto;html=1;entryX=0.5;entryY=0;entryDx=0;entryDy=0;" edge="1" parent="WIyWlLk6GJQsqaUBKTNV-1" source="lF4Y2PLeJeTcyX0tc8FO-63" target="lF4Y2PLeJeTcyX0tc8FO-64">
          <mxGeometry relative="1" as="geometry" />
        </mxCell>
        <mxCell id="lF4Y2PLeJeTcyX0tc8FO-70" style="edgeStyle=orthogonalEdgeStyle;rounded=0;orthogonalLoop=1;jettySize=auto;html=1;entryX=0;entryY=0.5;entryDx=0;entryDy=0;" edge="1" parent="WIyWlLk6GJQsqaUBKTNV-1" source="lF4Y2PLeJeTcyX0tc8FO-63" target="lF4Y2PLeJeTcyX0tc8FO-68">
          <mxGeometry relative="1" as="geometry" />
        </mxCell>
        <mxCell id="lF4Y2PLeJeTcyX0tc8FO-63" value="카테고리 리스트 중&lt;br&gt;카테고리 단건 확인" style="rounded=1;whiteSpace=wrap;html=1;fontSize=12;glass=0;strokeWidth=1;shadow=0;" vertex="1" parent="WIyWlLk6GJQsqaUBKTNV-1">
          <mxGeometry x="300" y="320" width="120" height="40" as="geometry" />
        </mxCell>
        <mxCell id="lF4Y2PLeJeTcyX0tc8FO-80" style="edgeStyle=orthogonalEdgeStyle;rounded=0;orthogonalLoop=1;jettySize=auto;html=1;entryX=0.5;entryY=0;entryDx=0;entryDy=0;" edge="1" parent="WIyWlLk6GJQsqaUBKTNV-1" source="lF4Y2PLeJeTcyX0tc8FO-64" target="lF4Y2PLeJeTcyX0tc8FO-74">
          <mxGeometry relative="1" as="geometry" />
        </mxCell>
        <mxCell id="lF4Y2PLeJeTcyX0tc8FO-64" value="카테고리에 포함된&lt;br&gt;질문 리스트 표시" style="rounded=1;whiteSpace=wrap;html=1;fontSize=12;glass=0;strokeWidth=1;shadow=0;" vertex="1" parent="WIyWlLk6GJQsqaUBKTNV-1">
          <mxGeometry x="300" y="400" width="120" height="40" as="geometry" />
        </mxCell>
        <mxCell id="lF4Y2PLeJeTcyX0tc8FO-73" style="edgeStyle=elbowEdgeStyle;rounded=0;orthogonalLoop=1;jettySize=auto;html=1;entryX=1;entryY=0.5;entryDx=0;entryDy=0;" edge="1" parent="WIyWlLk6GJQsqaUBKTNV-1" source="lF4Y2PLeJeTcyX0tc8FO-68" target="lF4Y2PLeJeTcyX0tc8FO-62">
          <mxGeometry relative="1" as="geometry">
            <Array as="points">
              <mxPoint x="485" y="280" />
              <mxPoint x="485" y="290" />
            </Array>
          </mxGeometry>
        </mxCell>
        <mxCell id="lF4Y2PLeJeTcyX0tc8FO-68" value="카테고리 목록&lt;br&gt;확인 버튼" style="rounded=1;whiteSpace=wrap;html=1;fontSize=12;glass=0;strokeWidth=1;shadow=0;" vertex="1" parent="WIyWlLk6GJQsqaUBKTNV-1">
          <mxGeometry x="440" y="320" width="90" height="40" as="geometry" />
        </mxCell>
        <mxCell id="lF4Y2PLeJeTcyX0tc8FO-81" style="edgeStyle=orthogonalEdgeStyle;rounded=0;orthogonalLoop=1;jettySize=auto;html=1;entryX=0.5;entryY=0;entryDx=0;entryDy=0;" edge="1" parent="WIyWlLk6GJQsqaUBKTNV-1" source="lF4Y2PLeJeTcyX0tc8FO-74" target="lF4Y2PLeJeTcyX0tc8FO-75">
          <mxGeometry relative="1" as="geometry" />
        </mxCell>
        <mxCell id="lF4Y2PLeJeTcyX0tc8FO-74" value="질문 리스트 중&lt;br&gt;질문 단건 확인" style="rounded=1;whiteSpace=wrap;html=1;fontSize=12;glass=0;strokeWidth=1;shadow=0;" vertex="1" parent="WIyWlLk6GJQsqaUBKTNV-1">
          <mxGeometry x="300" y="480" width="120" height="40" as="geometry" />
        </mxCell>
        <mxCell id="lF4Y2PLeJeTcyX0tc8FO-85" style="edgeStyle=orthogonalEdgeStyle;rounded=0;orthogonalLoop=1;jettySize=auto;html=1;entryX=0;entryY=0.5;entryDx=0;entryDy=0;" edge="1" parent="WIyWlLk6GJQsqaUBKTNV-1" source="lF4Y2PLeJeTcyX0tc8FO-75" target="lF4Y2PLeJeTcyX0tc8FO-76">
          <mxGeometry relative="1" as="geometry" />
        </mxCell>
        <mxCell id="lF4Y2PLeJeTcyX0tc8FO-75" value="질문 상세 화면&lt;br&gt;(답변 포함됨)" style="rounded=1;whiteSpace=wrap;html=1;fontSize=12;glass=0;strokeWidth=1;shadow=0;" vertex="1" parent="WIyWlLk6GJQsqaUBKTNV-1">
          <mxGeometry x="300" y="564.5" width="120" height="40" as="geometry" />
        </mxCell>
        <mxCell id="lF4Y2PLeJeTcyX0tc8FO-79" style="edgeStyle=orthogonalEdgeStyle;rounded=0;orthogonalLoop=1;jettySize=auto;html=1;entryX=1;entryY=0.5;entryDx=0;entryDy=0;" edge="1" parent="WIyWlLk6GJQsqaUBKTNV-1" source="lF4Y2PLeJeTcyX0tc8FO-76" target="lF4Y2PLeJeTcyX0tc8FO-64">
          <mxGeometry relative="1" as="geometry">
            <Array as="points">
              <mxPoint x="485" y="420" />
            </Array>
          </mxGeometry>
        </mxCell>
        <mxCell id="lF4Y2PLeJeTcyX0tc8FO-76" value="질문 목록&lt;br&gt;확인 버튼" style="rounded=1;whiteSpace=wrap;html=1;fontSize=12;glass=0;strokeWidth=1;shadow=0;" vertex="1" parent="WIyWlLk6GJQsqaUBKTNV-1">
          <mxGeometry x="440" y="565" width="90" height="40" as="geometry" />
        </mxCell>
        <mxCell id="lF4Y2PLeJeTcyX0tc8FO-84" style="edgeStyle=orthogonalEdgeStyle;rounded=0;orthogonalLoop=1;jettySize=auto;html=1;exitX=0.5;exitY=1;exitDx=0;exitDy=0;" edge="1" parent="WIyWlLk6GJQsqaUBKTNV-1" source="lF4Y2PLeJeTcyX0tc8FO-76" target="lF4Y2PLeJeTcyX0tc8FO-76">
          <mxGeometry relative="1" as="geometry" />
        </mxCell>
        <mxCell id="lF4Y2PLeJeTcyX0tc8FO-87" value="로그인 페이지 이동" style="rounded=1;whiteSpace=wrap;html=1;fontSize=12;glass=0;strokeWidth=1;shadow=0;" vertex="1" parent="WIyWlLk6GJQsqaUBKTNV-1">
          <mxGeometry x="710" y="260" width="100" height="40" as="geometry" />
        </mxCell>
        <mxCell id="lF4Y2PLeJeTcyX0tc8FO-98" style="edgeStyle=orthogonalEdgeStyle;rounded=0;orthogonalLoop=1;jettySize=auto;html=1;entryX=0.5;entryY=0;entryDx=0;entryDy=0;" edge="1" parent="WIyWlLk6GJQsqaUBKTNV-1" source="lF4Y2PLeJeTcyX0tc8FO-90" target="lF4Y2PLeJeTcyX0tc8FO-91">
          <mxGeometry relative="1" as="geometry" />
        </mxCell>
        <mxCell id="lF4Y2PLeJeTcyX0tc8FO-100" style="edgeStyle=orthogonalEdgeStyle;rounded=0;orthogonalLoop=1;jettySize=auto;html=1;entryX=0.5;entryY=0;entryDx=0;entryDy=0;" edge="1" parent="WIyWlLk6GJQsqaUBKTNV-1" source="lF4Y2PLeJeTcyX0tc8FO-90" target="lF4Y2PLeJeTcyX0tc8FO-92">
          <mxGeometry relative="1" as="geometry">
            <Array as="points">
              <mxPoint x="620" y="420" />
              <mxPoint x="750" y="420" />
            </Array>
          </mxGeometry>
        </mxCell>
        <mxCell id="lF4Y2PLeJeTcyX0tc8FO-90" value="사용자가 작성한&lt;br&gt;질문 리스트 표시" style="rounded=1;whiteSpace=wrap;html=1;fontSize=12;glass=0;strokeWidth=1;shadow=0;" vertex="1" parent="WIyWlLk6GJQsqaUBKTNV-1">
          <mxGeometry x="560" y="360" width="120" height="40" as="geometry" />
        </mxCell>
        <mxCell id="lF4Y2PLeJeTcyX0tc8FO-101" style="edgeStyle=orthogonalEdgeStyle;rounded=0;orthogonalLoop=1;jettySize=auto;html=1;entryX=0.5;entryY=0;entryDx=0;entryDy=0;" edge="1" parent="WIyWlLk6GJQsqaUBKTNV-1" source="lF4Y2PLeJeTcyX0tc8FO-91" target="lF4Y2PLeJeTcyX0tc8FO-93">
          <mxGeometry relative="1" as="geometry" />
        </mxCell>
        <mxCell id="lF4Y2PLeJeTcyX0tc8FO-91" value="질문 리스트 중&lt;br&gt;질문 단건 확인" style="rounded=1;whiteSpace=wrap;html=1;fontSize=12;glass=0;strokeWidth=1;shadow=0;" vertex="1" parent="WIyWlLk6GJQsqaUBKTNV-1">
          <mxGeometry x="560" y="440" width="120" height="40" as="geometry" />
        </mxCell>
        <mxCell id="lF4Y2PLeJeTcyX0tc8FO-102" style="edgeStyle=orthogonalEdgeStyle;rounded=0;orthogonalLoop=1;jettySize=auto;html=1;entryX=0.5;entryY=0;entryDx=0;entryDy=0;" edge="1" parent="WIyWlLk6GJQsqaUBKTNV-1" source="lF4Y2PLeJeTcyX0tc8FO-92" target="lF4Y2PLeJeTcyX0tc8FO-94">
          <mxGeometry relative="1" as="geometry" />
        </mxCell>
        <mxCell id="lF4Y2PLeJeTcyX0tc8FO-92" value="질문 작성 버튼" style="rounded=1;whiteSpace=wrap;html=1;fontSize=12;glass=0;strokeWidth=1;shadow=0;" vertex="1" parent="WIyWlLk6GJQsqaUBKTNV-1">
          <mxGeometry x="700" y="440" width="100" height="40" as="geometry" />
        </mxCell>
        <mxCell id="lF4Y2PLeJeTcyX0tc8FO-105" style="edgeStyle=orthogonalEdgeStyle;rounded=0;orthogonalLoop=1;jettySize=auto;html=1;entryX=0.5;entryY=0;entryDx=0;entryDy=0;" edge="1" parent="WIyWlLk6GJQsqaUBKTNV-1" source="lF4Y2PLeJeTcyX0tc8FO-93" target="lF4Y2PLeJeTcyX0tc8FO-99">
          <mxGeometry relative="1" as="geometry" />
        </mxCell>
        <mxCell id="lF4Y2PLeJeTcyX0tc8FO-107" style="edgeStyle=orthogonalEdgeStyle;rounded=0;orthogonalLoop=1;jettySize=auto;html=1;" edge="1" parent="WIyWlLk6GJQsqaUBKTNV-1" source="lF4Y2PLeJeTcyX0tc8FO-93" target="lF4Y2PLeJeTcyX0tc8FO-106">
          <mxGeometry relative="1" as="geometry">
            <Array as="points">
              <mxPoint x="620" y="660" />
              <mxPoint x="750" y="660" />
            </Array>
          </mxGeometry>
        </mxCell>
        <mxCell id="lF4Y2PLeJeTcyX0tc8FO-93" value="질문 상세 화면&lt;br&gt;(답변 포함됨)" style="rounded=1;whiteSpace=wrap;html=1;fontSize=12;glass=0;strokeWidth=1;shadow=0;" vertex="1" parent="WIyWlLk6GJQsqaUBKTNV-1">
          <mxGeometry x="560" y="520" width="120" height="40" as="geometry" />
        </mxCell>
        <mxCell id="lF4Y2PLeJeTcyX0tc8FO-103" style="edgeStyle=orthogonalEdgeStyle;rounded=0;orthogonalLoop=1;jettySize=auto;html=1;entryX=0.5;entryY=0;entryDx=0;entryDy=0;" edge="1" parent="WIyWlLk6GJQsqaUBKTNV-1" source="lF4Y2PLeJeTcyX0tc8FO-94" target="lF4Y2PLeJeTcyX0tc8FO-95">
          <mxGeometry relative="1" as="geometry" />
        </mxCell>
        <mxCell id="lF4Y2PLeJeTcyX0tc8FO-94" value="질문 작성 폼" style="rounded=1;whiteSpace=wrap;html=1;fontSize=12;glass=0;strokeWidth=1;shadow=0;" vertex="1" parent="WIyWlLk6GJQsqaUBKTNV-1">
          <mxGeometry x="700" y="520" width="100" height="40" as="geometry" />
        </mxCell>
        <mxCell id="lF4Y2PLeJeTcyX0tc8FO-104" style="edgeStyle=orthogonalEdgeStyle;rounded=0;orthogonalLoop=1;jettySize=auto;html=1;entryX=1;entryY=0.5;entryDx=0;entryDy=0;" edge="1" parent="WIyWlLk6GJQsqaUBKTNV-1" source="lF4Y2PLeJeTcyX0tc8FO-95" target="lF4Y2PLeJeTcyX0tc8FO-90">
          <mxGeometry relative="1" as="geometry">
            <Array as="points">
              <mxPoint x="810" y="620" />
              <mxPoint x="810" y="380" />
            </Array>
          </mxGeometry>
        </mxCell>
        <mxCell id="lF4Y2PLeJeTcyX0tc8FO-95" value="질문 작성" style="rounded=1;whiteSpace=wrap;html=1;fontSize=12;glass=0;strokeWidth=1;shadow=0;" vertex="1" parent="WIyWlLk6GJQsqaUBKTNV-1">
          <mxGeometry x="700" y="600" width="100" height="40" as="geometry" />
        </mxCell>
        <mxCell id="lF4Y2PLeJeTcyX0tc8FO-109" style="edgeStyle=orthogonalEdgeStyle;rounded=0;orthogonalLoop=1;jettySize=auto;html=1;entryX=1;entryY=0.5;entryDx=0;entryDy=0;" edge="1" parent="WIyWlLk6GJQsqaUBKTNV-1" source="lF4Y2PLeJeTcyX0tc8FO-99" target="lF4Y2PLeJeTcyX0tc8FO-108">
          <mxGeometry relative="1" as="geometry" />
        </mxCell>
        <mxCell id="lF4Y2PLeJeTcyX0tc8FO-116" style="edgeStyle=orthogonalEdgeStyle;rounded=0;orthogonalLoop=1;jettySize=auto;html=1;entryX=0.5;entryY=0;entryDx=0;entryDy=0;" edge="1" parent="WIyWlLk6GJQsqaUBKTNV-1" source="lF4Y2PLeJeTcyX0tc8FO-99" target="lF4Y2PLeJeTcyX0tc8FO-114">
          <mxGeometry relative="1" as="geometry" />
        </mxCell>
        <mxCell id="lF4Y2PLeJeTcyX0tc8FO-99" value="질문 수정 / 삭제 버튼&lt;br&gt;표시" style="rounded=1;whiteSpace=wrap;html=1;fontSize=12;glass=0;strokeWidth=1;shadow=0;" vertex="1" parent="WIyWlLk6GJQsqaUBKTNV-1">
          <mxGeometry x="560" y="680" width="120" height="40" as="geometry" />
        </mxCell>
        <mxCell id="lF4Y2PLeJeTcyX0tc8FO-112" style="edgeStyle=orthogonalEdgeStyle;rounded=0;orthogonalLoop=1;jettySize=auto;html=1;" edge="1" parent="WIyWlLk6GJQsqaUBKTNV-1" source="lF4Y2PLeJeTcyX0tc8FO-106" target="lF4Y2PLeJeTcyX0tc8FO-111">
          <mxGeometry relative="1" as="geometry" />
        </mxCell>
        <mxCell id="lF4Y2PLeJeTcyX0tc8FO-106" value="답변 작성 폼&lt;br&gt;표시" style="rounded=1;whiteSpace=wrap;html=1;fontSize=12;glass=0;strokeWidth=1;shadow=0;" vertex="1" parent="WIyWlLk6GJQsqaUBKTNV-1">
          <mxGeometry x="700" y="680" width="100" height="40" as="geometry" />
        </mxCell>
        <mxCell id="lF4Y2PLeJeTcyX0tc8FO-110" style="edgeStyle=orthogonalEdgeStyle;rounded=0;orthogonalLoop=1;jettySize=auto;html=1;entryX=0;entryY=0.5;entryDx=0;entryDy=0;" edge="1" parent="WIyWlLk6GJQsqaUBKTNV-1" source="lF4Y2PLeJeTcyX0tc8FO-108" target="lF4Y2PLeJeTcyX0tc8FO-90">
          <mxGeometry relative="1" as="geometry">
            <Array as="points">
              <mxPoint x="490" y="640" />
              <mxPoint x="540" y="640" />
              <mxPoint x="540" y="380" />
            </Array>
          </mxGeometry>
        </mxCell>
        <mxCell id="lF4Y2PLeJeTcyX0tc8FO-108" value="질문 삭제" style="rounded=1;whiteSpace=wrap;html=1;fontSize=12;glass=0;strokeWidth=1;shadow=0;" vertex="1" parent="WIyWlLk6GJQsqaUBKTNV-1">
          <mxGeometry x="450" y="680" width="80" height="40" as="geometry" />
        </mxCell>
        <mxCell id="lF4Y2PLeJeTcyX0tc8FO-113" style="edgeStyle=orthogonalEdgeStyle;rounded=0;orthogonalLoop=1;jettySize=auto;html=1;entryX=1;entryY=0.5;entryDx=0;entryDy=0;" edge="1" parent="WIyWlLk6GJQsqaUBKTNV-1" source="lF4Y2PLeJeTcyX0tc8FO-111" target="lF4Y2PLeJeTcyX0tc8FO-93">
          <mxGeometry relative="1" as="geometry">
            <Array as="points">
              <mxPoint x="690" y="770" />
              <mxPoint x="690" y="540" />
            </Array>
          </mxGeometry>
        </mxCell>
        <mxCell id="lF4Y2PLeJeTcyX0tc8FO-111" value="답변 작성" style="rounded=1;whiteSpace=wrap;html=1;fontSize=12;glass=0;strokeWidth=1;shadow=0;" vertex="1" parent="WIyWlLk6GJQsqaUBKTNV-1">
          <mxGeometry x="700" y="750" width="100" height="40" as="geometry" />
        </mxCell>
        <mxCell id="lF4Y2PLeJeTcyX0tc8FO-117" style="edgeStyle=orthogonalEdgeStyle;rounded=0;orthogonalLoop=1;jettySize=auto;html=1;entryX=0.5;entryY=0;entryDx=0;entryDy=0;" edge="1" parent="WIyWlLk6GJQsqaUBKTNV-1" source="lF4Y2PLeJeTcyX0tc8FO-114" target="lF4Y2PLeJeTcyX0tc8FO-115">
          <mxGeometry relative="1" as="geometry" />
        </mxCell>
        <mxCell id="lF4Y2PLeJeTcyX0tc8FO-114" value="질문 수정 폼" style="rounded=1;whiteSpace=wrap;html=1;fontSize=12;glass=0;strokeWidth=1;shadow=0;" vertex="1" parent="WIyWlLk6GJQsqaUBKTNV-1">
          <mxGeometry x="560" y="750" width="120" height="40" as="geometry" />
        </mxCell>
        <mxCell id="lF4Y2PLeJeTcyX0tc8FO-118" style="edgeStyle=orthogonalEdgeStyle;rounded=0;orthogonalLoop=1;jettySize=auto;html=1;entryX=0;entryY=0.5;entryDx=0;entryDy=0;" edge="1" parent="WIyWlLk6GJQsqaUBKTNV-1" source="lF4Y2PLeJeTcyX0tc8FO-115" target="lF4Y2PLeJeTcyX0tc8FO-93">
          <mxGeometry relative="1" as="geometry">
            <Array as="points">
              <mxPoint x="550" y="840" />
              <mxPoint x="550" y="540" />
            </Array>
          </mxGeometry>
        </mxCell>
        <mxCell id="lF4Y2PLeJeTcyX0tc8FO-115" value="질문 수정" style="rounded=1;whiteSpace=wrap;html=1;fontSize=12;glass=0;strokeWidth=1;shadow=0;" vertex="1" parent="WIyWlLk6GJQsqaUBKTNV-1">
          <mxGeometry x="560" y="820" width="120" height="40" as="geometry" />
        </mxCell>
      </root>
    </mxGraphModel>
  </diagram>
</mxfile>
